<svg version="1.0" xmlns="http://www.w3.org/2000/svg" viewBox="0 0 2600 2600"><g fill="#fff"><path d="M1847 486.1c-5.8 1.6-11.2 4.1-17 8-3.3 2.2-57.4 56.2-133.5 133.1-70.4 71.2-128.1 129.4-128.3 129.3-.1-.1.7-4.4 1.7-9.6 11.4-54.7-1.7-112.5-35.7-157.8-7.2-9.6-22.4-25.4-32.3-33.6-53.9-45-129-58.1-195.5-34-92.4 33.5-147 130.7-127.2 227 5.8 28.5 18.7 56.7 37.2 81 6.4 8.5 23.8 26.5 32 33.2l4.9 4-8 7.7c-4.5 4.2-9.6 9.8-11.4 12.5-3.3 4.7-3.4 4.8-11.4 6.3-6.7 1.3-218.1 74.6-247.8 86-32 12.2-53.1 46.5-48.9 79.3 1.5 11.3 43.6 187.5 46.7 195.3 3.9 9.9 9.9 18.5 18.4 26.5 8.9 8.3 18.4 13.8 31 17.7l8.3 2.6-197.6 199.7L634.9 1700h-10.4c-34.5 0-92.4 17.2-145 43l-18 8.9-155.5 127c-85.5 69.9-159.1 130.6-163.6 135-22.7 22.2-28.9 45-17.8 66.1 4.8 9.2 13.4 17.2 30.3 28.4l14.4 9.6 3.6-3.3c17.4-15.7 49.9-36.1 85.6-53.7 78.3-38.6 171.7-65.7 283-82 10-1.5 14.5-2.6 15.6-3.8.9-.9 14.3-17.6 29.8-37 30.7-38.4 34.1-43.6 47.1-72 16.3-35.4 27.7-68 33-94.1l2.1-10.4 6.7-7.2c3.7-4 126.6-128.4 273.2-276.4l266.5-269.3.3 108.1.2 108.1-68.2 110.7c-37.5 61-69.4 113-71 115.6-9.7 16.4-13.2 38-9.2 56 .9 4 14.2 40 29.6 80.2 15.4 40.1 28.3 73.9 28.6 74.9.5 1.8-.2 1.9-19.4 1.2-55.6-1.9-407.9-12.6-414.4-12.6h-3.5l-4.9 11.8c-6.5 15.6-18.9 41.3-26 54.1-3.7 6.6-12 18-22.7 31.5-9.3 11.6-16.9 21.4-16.9 21.8 0 .3 1.7.4 3.8.2 10.7-1.2 36.5-2.5 69.3-3.6 77.6-2.5 165.6 2.7 249.9 14.7 64.4 9.2 136.8 24.2 196 40.5 11.4 3.2 11.7 3.2 28 2.6 34.5-1.2 75.8-2.6 110-3.6 173.5-5.2 363.3-16.4 530.5-31.5 290.9-26.3 511.5-64.5 525.1-90.8 1.5-2.7 1.5-3.2-.3-5.6-8-10.9-53.9-16.3-161.3-19.1-20.6-.5-48.5-1-61.8-1h-24.4l-20.6-11.1c-42-22.6-90.3-50.9-141.2-82.4-13.5-8.4-28.1-17.3-32.6-19.8-24.7-14-57.3-24.9-89-29.8-19.7-3-58.9-3.7-80.4-1.5-29.4 3.1-62.4 10.2-91.1 19.5-6.9 2.3-12.8 4.1-13.1 4.1-.4 0-15.3-16-33.2-35.5l-32.7-35.5-10.8-104.5-10.8-104.5 2.3-8c1.3-4.4 2.8-11.7 3.4-16.2.6-5.4 1-76.6 1-206.8v-198.5l104.8-9.2c82.7-7.3 106.3-9.7 112.1-11.3 25.2-7.1 44.2-25.4 52.7-50.5 4.6-13.8 4.5-18.8-4.5-140.5-4.4-60.2-8.8-113.3-9.6-117.9-1.9-10.2-6.2-20.9-11.7-29-3.8-5.7-13.3-15.5-19-19.6l-2.7-2 57.5-58c31.6-31.9 59.5-60.9 62.1-64.4 6.3-8.6 9.3-17.2 9.3-26.6 0-16.9-12-28.7-29-28.4-3 0-7.1.5-9 1zm-206 295.3c0 .7 1.6 22.6 3.5 48.6s3.4 47.5 3.2 47.7c-.2.1-23.7 2.3-52.3 4.8-28.5 2.5-54.4 4.8-57.4 5.1l-5.5.7 53.5-54.1c29.4-29.7 53.8-54.1 54.3-54.1.4-.1.7.5.7 1.3zm-425 304v27.4l-48.2 48.7c-26.5 26.8-48.4 48.3-48.6 47.7-2.1-6.4-25.7-107.9-25.2-108.5.8-.9 118.8-42.6 120.8-42.7.9 0 1.2 6.1 1.2 27.4zm163 448.6c0 6.1 20.4 195.1 21.5 199.5 2.3 8.8 8.5 21.2 14 28 3.7 4.6 80.4 88.6 97.6 107l2.9 3.1-18.8-.3c-10.3-.1-59.9-.8-110.2-1.4-66.4-.8-91.8-1.4-92.6-2.2-.7-.7-15.6-38.9-33.2-84.9l-32.1-83.7 51.1-83.1 51.2-83h24.3c15.3 0 24.3.4 24.3 1zm415 255.4c32.4 5.7 53.7 14.4 87.5 35.6 9.9 6.2 31.1 19.2 47 28.8 16 9.6 29.2 17.6 29.4 17.8.2.2-53.1.4-118.5.3h-118.9l-4.6-7.2c-2.6-4-16.2-19.7-30.3-35-14.1-15.2-25.6-28.1-25.6-28.6 0-1.9 36.8-9.8 59-12.6 14.8-2 62-1.3 75 .9z"/><path d="M680.3 2011c-154.8 6.4-294.4 37.2-400.8 88.4-59.4 28.6-104.7 65.6-115.5 94.4-3.3 8.7-4.6 16.6-3.2 19.7 1.6 3.4 7.8 6.1 17.3 7.6 10.2 1.6 58.8.6 94.9-2 158.8-11.5 208.1-13.6 317.5-13.6 81.6 0 105 .6 163.5 4 135.7 8 266.4 25.9 391.5 53.5 52.1 11.5 96.5 22.8 153 39 127.2 36.4 249.8 58 377 66.5 73.2 4.8 154.8 4.8 228 0 163.4-10.9 327.4-47.1 442-97.7 47.4-20.9 80.3-42.3 85.9-56l1.6-3.7-6.7 3c-13.9 6.4-56.1 16.9-97.3 24.3-64.4 11.7-135.5 19.1-215 22.6-30 1.3-116.2 1.3-148 0-193-7.9-382.1-42.5-565.5-103.4-39-13-53.9-18.3-100-35.8-43.6-16.5-73.3-27.1-101.5-36.1-133.2-42.5-258.9-66-395-73.7-24.4-1.4-99.4-2-123.7-1z"/></g></svg>