<?xml version="1.0" standalone="no"?>
<!DOCTYPE svg PUBLIC "-//W3C//DTD SVG 20010904//EN" "http://www.w3.org/TR/2001/REC-SVG-20010904/DTD/svg10.dtd">
<svg version="1.0" xmlns="http://www.w3.org/2000/svg" viewBox="0 0 2600.000000 2600.000000"
    preserveAspectRatio="xMidYMid meet">
    <metadata>
        Created by potrace 1.15, written by Peter Selinger 2001-2017
    </metadata>
    <g transform="translate(0.000000,2600.000000) scale(0.100000,-0.100000)" fill="#ffffff" stroke="none">
        <path d="M18470 21139 c-58 -16 -112 -41 -170 -80 -33 -22 -574 -562 -1335
-1331 -704 -712 -1281 -1294 -1283 -1293 -1 1 7 44 17 96 114 547 -17 1125
-357 1578 -72 96 -224 254 -323 336 -539 450 -1290 581 -1955 340 -924 -335
-1470 -1307 -1272 -2270 58 -285 187 -567 372 -810 64 -85 238 -265 320 -332
l49 -40 -80 -77 c-45 -42 -96 -98 -114 -125 -33 -47 -34 -48 -114 -63 -67 -13
-2181 -746 -2478 -860 -320 -122 -531 -465 -489 -793 15 -113 436 -1875 467
-1953 39 -99 99 -185 184 -265 89 -83 184 -138 310 -177 l83 -26 -1976 -1997
-1977 -1997 -104 0 c-345 0 -924 -172 -1450 -430 l-180 -89 -1555 -1270 c-855
-699 -1591 -1306 -1636 -1350 -227 -222 -289 -450 -178 -661 48 -92 134 -172
303 -284 l144 -96 36 33 c174 157 499 361 856 537 783 386 1717 657 2830 820
100 15 145 26 156 38 9 9 143 176 298 370 307 384 341 436 471 720 163 354
277 680 330 941 l21 104 67 72 c37 40 1266 1284 2732 2764 l2665 2693 3 -1081
2 -1081 -682 -1107 c-375 -610 -694 -1130 -710 -1156 -97 -164 -132 -380 -92
-560 9 -40 142 -400 296 -802 154 -401 283 -739 286 -749 5 -18 -2 -19 -194
-12 -556 19 -4079 126 -4144 126 l-35 0 -49 -118 c-65 -156 -189 -413 -260
-541 -37 -66 -120 -180 -227 -315 -93 -116 -169 -214 -169 -218 0 -3 17 -4 38
-2 107 12 365 25 693 36 776 25 1656 -27 2499 -147 644 -92 1368 -242 1960
-405 114 -32 117 -32 280 -26 345 12 758 26 1100 36 1735 52 3633 164 5305
315 2909 263 5115 645 5251 908 15 27 15 32 -3 56 -80 109 -539 163 -1613 191
-206 5 -485 10 -618 10 l-244 0 -206 111 c-420 226 -903 509 -1412 824 -135
84 -281 173 -326 198 -247 140 -573 249 -890 298 -197 30 -589 37 -804 15
-294 -31 -624 -102 -911 -195 -69 -23 -128 -41 -131 -41 -4 0 -153 160 -332
355 l-327 355 -108 1045 -108 1045 23 80 c13 44 28 117 34 162 6 54 10 766 10
2068 l0 1985 1048 92 c827 73 1063 97 1121 113 252 71 442 254 527 505 46 138
45 188 -45 1405 -44 602 -88 1133 -96 1179 -19 102 -62 209 -117 290 -38 57
-133 155 -190 196 l-27 20 575 580 c316 319 595 609 621 644 63 86 93 172 93
266 0 169 -120 287 -290 284 -30 0 -71 -5 -90 -10z m-2060 -2953 c0 -7 16
-226 35 -486 19 -260 34 -475 32 -477 -2 -1 -237 -23 -523 -48 -285 -25 -544
-48 -574 -51 l-55 -7 535 541 c294 297 538 541 543 541 4 1 7 -5 7 -13z
m-4250 -3040 l0 -274 -482 -487 c-265 -268 -484 -483 -486 -477 -21 64 -257
1079 -252 1085 8 9 1188 426 1208 427 9 0 12 -61 12 -274z m1630 -4486 c0 -61
204 -1951 215 -1995 23 -88 85 -212 140 -280 37 -46 804 -886 976 -1070 l29
-31 -188 3 c-103 1 -599 8 -1102 14 -664 8 -918 14 -926 22 -7 7 -156 389
-332 849 l-321 837 511 831 512 830 243 0 c153 0 243 -4 243 -10z m4150 -2554
c324 -57 537 -144 875 -356 99 -62 311 -192 470 -288 160 -96 292 -176 294
-178 2 -2 -531 -4 -1185 -3 l-1189 0 -46 72 c-26 40 -162 197 -303 350 -141
152 -256 281 -256 286 0 19 368 98 590 126 148 20 620 13 750 -9z" />
        <path d="M6803 5890 c-1548 -64 -2944 -372 -4008 -884 -594 -286 -1047 -656
-1155 -944 -33 -87 -46 -166 -32 -197 16 -34 78 -61 173 -76 102 -16 588 -6
949 20 1588 115 2081 136 3175 136 816 0 1050 -6 1635 -40 1357 -80 2664 -259
3915 -535 521 -115 965 -228 1530 -390 1272 -364 2498 -580 3770 -665 732 -48
1548 -48 2280 0 1634 109 3274 471 4420 977 474 209 803 423 859 560 l16 37
-67 -30 c-139 -64 -561 -169 -973 -243 -644 -117 -1355 -191 -2150 -226 -300
-13 -1162 -13 -1480 0 -1930 79 -3821 425 -5655 1034 -390 130 -539 183 -1000
358 -436 165 -733 271 -1015 361 -1332 425 -2589 660 -3950 737 -244 14 -994
20 -1237 10z" />
    </g>
</svg>