<svg width="180" height="247" fill="none" xmlns="http://www.w3.org/2000/svg">
    <path
        d="M36.8 233.38c0 1.481-.542 2.647-1.628 3.498-1.085.836-2.471 1.254-4.158 1.254-1.334 0-2.625-.367-3.872-1.1-.616-.381-1.122-.917-1.518-1.606-.396-.704-.594-1.503-.594-2.398l2.772-.132c0 .792.338 1.408 1.012 1.848.675.44 1.423.66 2.244.66 1.834 0 2.75-.645 2.75-1.936 0-1.056-.623-1.679-1.87-1.87l-2.552-.264c-1.276-.191-2.288-.645-3.036-1.364-.748-.719-1.122-1.753-1.122-3.102s.536-2.464 1.606-3.344c1.071-.88 2.42-1.32 4.048-1.32 1.643 0 2.963.418 3.96 1.254.998.821 1.496 1.885 1.496 3.19l-2.728.132c-.249-1.276-1.107-1.914-2.574-1.914-.894 0-1.598.191-2.112.572-.498.381-.748.836-.748 1.364 0 .513.184.924.55 1.232.367.293.822.477 1.364.55l2.508.264c2.802.381 4.202 1.892 4.202 4.532zm14.142-3.938v1.188c0 2.625-.498 4.532-1.496 5.72-.982 1.188-2.566 1.782-4.752 1.782-2.185 0-3.769-.594-4.752-1.782-.968-1.188-1.452-3.117-1.452-5.786v-1.144c0-2.435.492-4.246 1.474-5.434.998-1.188 2.567-1.782 4.708-1.782 2.156 0 3.74.601 4.752 1.804 1.012 1.203 1.518 3.014 1.518 5.434zm-3.058 1.122v-.814c0-1.408-.176-2.53-.528-3.366-.41-.968-1.29-1.452-2.64-1.452-1.364 0-2.25.484-2.662 1.452-.337.792-.506 1.914-.506 3.366v.814c0 1.892.264 3.168.792 3.828.206.279.506.521.902.726.411.191.895.286 1.452.286.572 0 1.056-.095 1.452-.286.396-.191.704-.425.924-.704.22-.279.39-.645.506-1.1.206-.719.308-1.635.308-2.75zm16.513 2.816c0 1.481-.543 2.647-1.628 3.498-1.086.836-2.472 1.254-4.158 1.254-1.335 0-2.626-.367-3.872-1.1-.616-.381-1.122-.917-1.518-1.606-.396-.704-.594-1.503-.594-2.398l2.772-.132c0 .792.337 1.408 1.012 1.848.674.44 1.422.66 2.244.66 1.833 0 2.75-.645 2.75-1.936 0-1.056-.624-1.679-1.87-1.87l-2.552-.264c-1.276-.191-2.288-.645-3.036-1.364-.748-.719-1.122-1.753-1.122-3.102s.535-2.464 1.606-3.344c1.07-.88 2.42-1.32 4.048-1.32 1.642 0 2.962.418 3.96 1.254.997.821 1.496 1.885 1.496 3.19l-2.728.132c-.25-1.276-1.108-1.914-2.574-1.914-.895 0-1.599.191-2.112.572-.499.381-.748.836-.748 1.364 0 .513.183.924.55 1.232.366.293.821.477 1.364.55l2.508.264c2.801.381 4.202 1.892 4.202 4.532z"
        fill="#ffffff" />
    <path
        d="M82.574 225.064h-4.202V238h-3.058v-12.936h-4.18v-2.728h11.44v2.728zm9.048.418l-.792 2.816a2 2 0 00-.748-.132c-.733 0-1.635.315-2.706.946V238h-2.86v-12.562h2.134l.66 1.1 3.036-1.254c.147-.015.345-.022.594-.022.25 0 .477.073.682.22zM102.395 238h-1.914l-.88-1.518-3.058 1.65c-1.702 0-2.846-.616-3.432-1.848a7.11 7.11 0 01-.616-1.936 15.073 15.073 0 01-.154-2.178c0-.763.007-1.32.022-1.672.014-.367.05-.785.11-1.254.058-.484.139-.887.242-1.21.117-.323.278-.653.484-.99a2.59 2.59 0 01.748-.836c.66-.455 1.518-.682 2.574-.682h3.014l2.86-.176V238zm-2.86-4.004V228.1h-2.178c-.807 0-1.372.308-1.694.924-.308.616-.462 1.54-.462 2.772 0 1.217.146 2.075.44 2.574.308.499.88.748 1.716.748l2.178-1.122zm15.338-8.558L110.671 238h-2.244l-4.224-12.562h3.014l2.332 8.184 2.31-8.184h3.014zm11.333 6.952h-7.326c0 1.144.176 1.98.528 2.508.367.528 1.093.792 2.178.792.704 0 1.225-.22 1.562-.66.337-.455.506-.887.506-1.298h2.574c0 1.569-.425 2.721-1.276 3.454-.836.733-1.951 1.1-3.344 1.1-1.379 0-2.449-.198-3.212-.594-1.569-.807-2.354-2.948-2.354-6.424 0-2.068.447-3.579 1.342-4.532.895-.968 2.259-1.452 4.092-1.452 3.183 0 4.774 1.767 4.774 5.302 0 .381-.015.983-.044 1.804zm-7.26-1.958h4.708c0-.968-.183-1.672-.55-2.112-.367-.44-.931-.66-1.694-.66-.748 0-1.349.227-1.804.682-.44.44-.66 1.137-.66 2.09zM131.813 238l-2.86.022v-16.566h2.86V238zm12.708-5.61h-7.326c0 1.144.176 1.98.528 2.508.367.528 1.093.792 2.178.792.704 0 1.225-.22 1.562-.66.337-.455.506-.887.506-1.298h2.574c0 1.569-.425 2.721-1.276 3.454-.836.733-1.951 1.1-3.344 1.1-1.379 0-2.449-.198-3.212-.594-1.569-.807-2.354-2.948-2.354-6.424 0-2.068.447-3.579 1.342-4.532.895-.968 2.259-1.452 4.092-1.452 3.183 0 4.774 1.767 4.774 5.302 0 .381-.015.983-.044 1.804zm-7.26-1.958h4.708c0-.968-.183-1.672-.55-2.112-.367-.44-.931-.66-1.694-.66-.748 0-1.349.227-1.804.682-.44.44-.66 1.137-.66 2.09zm16.783-4.95l-.792 2.816a1.999 1.999 0 00-.748-.132c-.733 0-1.635.315-2.706.946V238h-2.86v-12.562h2.134l.66 1.1 3.036-1.254c.147-.015.345-.022.594-.022s.477.073.682.22zm10.75 9.042v.33c-.088 1.1-.557 1.929-1.408 2.486-.836.557-1.885.836-3.146.836-1.863 0-3.168-.337-3.916-1.012-.689-.616-1.034-1.525-1.034-2.728v-.264h2.596c0 .675.176 1.137.528 1.386.352.249.961.374 1.826.374 1.173 0 1.76-.425 1.76-1.276 0-.704-.205-1.173-.616-1.408a2.23 2.23 0 00-.726-.264l-2.222-.374c-1.936-.308-2.904-1.518-2.904-3.63 0-1.173.425-2.083 1.276-2.728.865-.66 1.958-.99 3.278-.99 3.007 0 4.51 1.298 4.51 3.894v.286h-2.486c-.029-.689-.213-1.159-.55-1.408-.337-.249-.814-.374-1.43-.374-.601 0-1.056.125-1.364.374-.308.235-.462.499-.462.792 0 .836.337 1.313 1.012 1.43l2.662.484c1.877.352 2.816 1.613 2.816 3.784z"
        fill="#edf3f5" />
    <g clip-path="url(#prefix__prefix__prefix__clip0_861_9046)">
        <path
            d="M153.642 26.355C143.457 16.17 131.434 8.943 118.643 4.66A90.41 90.41 0 0071.42 1.927C54.908 5.395 39.18 13.534 26.36 26.355-6.604 59.32-8.652 111.496 20.217 146.848c.483.594.976 1.177 1.476 1.759a78.502 78.502 0 003.215 3.567c.358.367.713.719 1.07 1.076.128.129.252.262.382.389.07.071.14.14.212.209a.332.332 0 01.018.019c35.165 34.919 91.981 34.847 127.049-.228 35.148-35.148 35.148-92.136.003-127.284zM44.172 96.9c27.899 40.959.8 45.096-11.424 32.248-6.071-6.382-16.016-16.328-18.76-36.702-.802-20.739 6.7-41.743 22.533-57.576a78.794 78.794 0 014.846-4.427C27.349 52.585 30.046 76.16 44.172 96.9zm30.834 68.016c7.976-4.682 13.01-11.484 14.254-13.757 3.8-6.95 13.996-36.661-11.328-66.97-12.67-15.168-16.872-34.042-8.807-49.053 6.015-11.197 13.126-18.323 20.1-22.829 20.369-.49 40.899 7.015 56.444 22.561 30.139 30.141 30.14 79.008-.002 109.15-19.185 19.186-45.957 26.14-70.661 20.898z"
            fill="#ffffff" />
        <path
            d="M153.642 26.355C143.457 16.17 131.434 8.943 118.643 4.66A90.41 90.41 0 0071.42 1.927C54.908 5.395 39.18 13.534 26.36 26.355-6.604 59.32-8.652 111.496 20.217 146.848c.483.594.976 1.177 1.476 1.759a78.502 78.502 0 003.215 3.567c.358.367.713.719 1.07 1.076.128.129.252.262.382.389.07.071.14.14.212.209a.332.332 0 01.018.019c35.165 34.919 91.981 34.847 127.049-.228 35.148-35.148 35.148-92.136.003-127.284zM44.172 96.9c27.899 40.959.8 45.096-11.424 32.248-6.071-6.382-16.016-16.328-18.76-36.702-.802-20.739 6.7-41.743 22.533-57.576a78.794 78.794 0 014.846-4.427C27.349 52.585 30.046 76.16 44.172 96.9zm30.834 68.016c7.976-4.682 13.01-11.484 14.254-13.757 3.8-6.95 13.996-36.661-11.328-66.97-12.67-15.168-16.872-34.042-8.807-49.053 6.015-11.197 13.126-18.323 20.1-22.829 20.369-.49 40.899 7.015 56.444 22.561 30.139 30.141 30.14 79.008-.002 109.15-19.185 19.186-45.957 26.14-70.661 20.898z"
            fill="url(#prefix__prefix__prefix__paint0_linear_861_9046)" />
    </g>
    <defs>
        <linearGradient id="prefix__prefix__prefix__paint0_linear_861_9046" x1="84.933" y1="-.626" x2="94.877"
            y2="177.227" gradientUnits="userSpaceOnUse">
            <stop stop-color="#000000" stop-opacity=".15" />
            <stop offset=".07" stop-color="#040404" stop-opacity=".3" />
            <stop offset=".51" stop-color="rgba(15,16,16,0.3)" stop-opacity=".9" />
            <stop offset=".93" stop-color="#000000" stop-opacity=".3" />
            <stop offset="1" stop-color="#000000" stop-opacity=".15" />
        </linearGradient>
        <clipPath id="prefix__prefix__prefix__clip0_861_9046">
            <path fill="#000000" d="M0 0h180v180H0z" />
        </clipPath>
    </defs>
</svg>