<svg width="180" height="247" viewBox="0 0 180 247" fill="none" xmlns="http://www.w3.org/2000/svg">
    <path
        d="M36.8004 233.38C36.8004 234.861 36.2577 236.027 35.1724 236.878C34.087 237.714 32.701 238.132 31.0144 238.132C29.6797 238.132 28.389 237.765 27.1424 237.032C26.5264 236.651 26.0204 236.115 25.6244 235.426C25.2284 234.722 25.0304 233.923 25.0304 233.028L27.8024 232.896C27.8024 233.688 28.1397 234.304 28.8144 234.744C29.489 235.184 30.237 235.404 31.0584 235.404C32.8917 235.404 33.8084 234.759 33.8084 233.468C33.8084 232.412 33.185 231.789 31.9384 231.598L29.3864 231.334C28.1104 231.143 27.0984 230.689 26.3504 229.97C25.6024 229.251 25.2284 228.217 25.2284 226.868C25.2284 225.519 25.7637 224.404 26.8344 223.524C27.905 222.644 29.2544 222.204 30.8824 222.204C32.525 222.204 33.845 222.622 34.8424 223.458C35.8397 224.279 36.3384 225.343 36.3384 226.648L33.6104 226.78C33.361 225.504 32.503 224.866 31.0364 224.866C30.1417 224.866 29.4377 225.057 28.9244 225.438C28.4257 225.819 28.1764 226.274 28.1764 226.802C28.1764 227.315 28.3597 227.726 28.7264 228.034C29.093 228.327 29.5477 228.511 30.0904 228.584L32.5984 228.848C35.3997 229.229 36.8004 230.74 36.8004 233.38ZM50.9424 229.442V230.63C50.9424 233.255 50.4438 235.162 49.4464 236.35C48.4638 237.538 46.8798 238.132 44.6944 238.132C42.5091 238.132 40.9251 237.538 39.9424 236.35C38.9744 235.162 38.4904 233.233 38.4904 230.564V229.42C38.4904 226.985 38.9818 225.174 39.9644 223.986C40.9618 222.798 42.5311 222.204 44.6724 222.204C46.8284 222.204 48.4124 222.805 49.4244 224.008C50.4364 225.211 50.9424 227.022 50.9424 229.442ZM47.8844 230.564V229.75C47.8844 228.342 47.7084 227.22 47.3564 226.384C46.9458 225.416 46.0658 224.932 44.7164 224.932C43.3524 224.932 42.4651 225.416 42.0544 226.384C41.7171 227.176 41.5484 228.298 41.5484 229.75V230.564C41.5484 232.456 41.8124 233.732 42.3404 234.392C42.5458 234.671 42.8464 234.913 43.2424 235.118C43.6531 235.309 44.1371 235.404 44.6944 235.404C45.2664 235.404 45.7504 235.309 46.1464 235.118C46.5424 234.927 46.8504 234.693 47.0704 234.414C47.2904 234.135 47.4591 233.769 47.5764 233.314C47.7818 232.595 47.8844 231.679 47.8844 230.564ZM64.3966 233.38C64.3966 234.861 63.854 236.027 62.7686 236.878C61.6833 237.714 60.2973 238.132 58.6106 238.132C57.276 238.132 55.9853 237.765 54.7386 237.032C54.1226 236.651 53.6166 236.115 53.2206 235.426C52.8246 234.722 52.6266 233.923 52.6266 233.028L55.3986 232.896C55.3986 233.688 55.736 234.304 56.4106 234.744C57.0853 235.184 57.8333 235.404 58.6546 235.404C60.488 235.404 61.4046 234.759 61.4046 233.468C61.4046 232.412 60.7813 231.789 59.5346 231.598L56.9826 231.334C55.7066 231.143 54.6946 230.689 53.9466 229.97C53.1986 229.251 52.8246 228.217 52.8246 226.868C52.8246 225.519 53.36 224.404 54.4306 223.524C55.5013 222.644 56.8506 222.204 58.4786 222.204C60.1213 222.204 61.4413 222.622 62.4386 223.458C63.436 224.279 63.9346 225.343 63.9346 226.648L61.2066 226.78C60.9573 225.504 60.0993 224.866 58.6326 224.866C57.738 224.866 57.034 225.057 56.5206 225.438C56.022 225.819 55.7726 226.274 55.7726 226.802C55.7726 227.315 55.956 227.726 56.3226 228.034C56.6893 228.327 57.144 228.511 57.6866 228.584L60.1946 228.848C62.996 229.229 64.3966 230.74 64.3966 233.38Z"
        fill="#000E28" />
    <path
        d="M82.574 225.064H78.372V238H75.314V225.064H71.134V222.336H82.574V225.064ZM91.6223 225.482L90.8303 228.298C90.6103 228.21 90.361 228.166 90.0823 228.166C89.349 228.166 88.447 228.481 87.3763 229.112V238H84.5163V225.438H86.6503L87.3103 226.538L90.3463 225.284C90.493 225.269 90.691 225.262 90.9403 225.262C91.1896 225.262 91.417 225.335 91.6223 225.482ZM102.395 238H100.481L99.6006 236.482L96.5426 238.132C94.8412 238.132 93.6972 237.516 93.1106 236.284C92.8172 235.683 92.6119 235.037 92.4946 234.348C92.3919 233.644 92.3406 232.918 92.3406 232.17C92.3406 231.407 92.3479 230.85 92.3626 230.498C92.3772 230.131 92.4139 229.713 92.4726 229.244C92.5312 228.76 92.6119 228.357 92.7146 228.034C92.8319 227.711 92.9932 227.381 93.1986 227.044C93.4039 226.692 93.6532 226.413 93.9466 226.208C94.6066 225.753 95.4646 225.526 96.5206 225.526H99.5346L102.395 225.35V238ZM99.5346 233.996V228.1H97.3566C96.5499 228.1 95.9852 228.408 95.6626 229.024C95.3546 229.64 95.2006 230.564 95.2006 231.796C95.2006 233.013 95.3472 233.871 95.6406 234.37C95.9486 234.869 96.5206 235.118 97.3566 235.118L99.5346 233.996ZM114.873 225.438L110.671 238H108.427L104.203 225.438H107.217L109.549 233.622L111.859 225.438H114.873ZM126.206 232.39H118.88C118.88 233.534 119.056 234.37 119.408 234.898C119.775 235.426 120.501 235.69 121.586 235.69C122.29 235.69 122.811 235.47 123.148 235.03C123.485 234.575 123.654 234.143 123.654 233.732H126.228C126.228 235.301 125.803 236.453 124.952 237.186C124.116 237.919 123.001 238.286 121.608 238.286C120.229 238.286 119.159 238.088 118.396 237.692C116.827 236.885 116.042 234.744 116.042 231.268C116.042 229.2 116.489 227.689 117.384 226.736C118.279 225.768 119.643 225.284 121.476 225.284C124.659 225.284 126.25 227.051 126.25 230.586C126.25 230.967 126.235 231.569 126.206 232.39ZM118.946 230.432H123.654C123.654 229.464 123.471 228.76 123.104 228.32C122.737 227.88 122.173 227.66 121.41 227.66C120.662 227.66 120.061 227.887 119.606 228.342C119.166 228.782 118.946 229.479 118.946 230.432ZM131.813 238L128.953 238.022V221.456H131.813V238ZM144.521 232.39H137.195C137.195 233.534 137.371 234.37 137.723 234.898C138.09 235.426 138.816 235.69 139.901 235.69C140.605 235.69 141.126 235.47 141.463 235.03C141.8 234.575 141.969 234.143 141.969 233.732H144.543C144.543 235.301 144.118 236.453 143.267 237.186C142.431 237.919 141.316 238.286 139.923 238.286C138.544 238.286 137.474 238.088 136.711 237.692C135.142 236.885 134.357 234.744 134.357 231.268C134.357 229.2 134.804 227.689 135.699 226.736C136.594 225.768 137.958 225.284 139.791 225.284C142.974 225.284 144.565 227.051 144.565 230.586C144.565 230.967 144.55 231.569 144.521 232.39ZM137.261 230.432H141.969C141.969 229.464 141.786 228.76 141.419 228.32C141.052 227.88 140.488 227.66 139.725 227.66C138.977 227.66 138.376 227.887 137.921 228.342C137.481 228.782 137.261 229.479 137.261 230.432ZM154.044 225.482L153.252 228.298C153.032 228.21 152.783 228.166 152.504 228.166C151.771 228.166 150.869 228.481 149.798 229.112V238H146.938V225.438H149.072L149.732 226.538L152.768 225.284C152.915 225.269 153.113 225.262 153.362 225.262C153.611 225.262 153.839 225.335 154.044 225.482ZM164.794 234.524V234.854C164.706 235.954 164.237 236.783 163.386 237.34C162.55 237.897 161.501 238.176 160.24 238.176C158.377 238.176 157.072 237.839 156.324 237.164C155.635 236.548 155.29 235.639 155.29 234.436V234.172H157.886C157.886 234.847 158.062 235.309 158.414 235.558C158.766 235.807 159.375 235.932 160.24 235.932C161.413 235.932 162 235.507 162 234.656C162 233.952 161.795 233.483 161.384 233.248C161.193 233.131 160.951 233.043 160.658 232.984L158.436 232.61C156.5 232.302 155.532 231.092 155.532 228.98C155.532 227.807 155.957 226.897 156.808 226.252C157.673 225.592 158.766 225.262 160.086 225.262C163.093 225.262 164.596 226.56 164.596 229.156V229.442H162.11C162.081 228.753 161.897 228.283 161.56 228.034C161.223 227.785 160.746 227.66 160.13 227.66C159.529 227.66 159.074 227.785 158.766 228.034C158.458 228.269 158.304 228.533 158.304 228.826C158.304 229.662 158.641 230.139 159.316 230.256L161.978 230.74C163.855 231.092 164.794 232.353 164.794 234.524Z"
        fill="#00A2D7" />
    <g clip-path="url(#clip0_861_9046)">
        <path
            d="M153.642 26.3551C143.457 16.1691 131.434 8.94313 118.643 4.66013C103.398 -0.443868 87.0576 -1.35587 71.4196 1.92713C54.9076 5.39513 39.1806 13.5341 26.3596 26.3551C-6.60438 59.3201 -8.65238 111.496 20.2166 146.848C20.6996 147.442 21.1926 148.025 21.6926 148.607C22.7196 149.81 23.7776 151.003 24.9076 152.174C25.2656 152.541 25.6206 152.893 25.9776 153.25C26.1056 153.379 26.2296 153.512 26.3596 153.639C26.4296 153.71 26.5006 153.779 26.5716 153.848C26.5776 153.854 26.5836 153.86 26.5896 153.867C61.7546 188.786 118.571 188.714 153.639 153.639C188.787 118.491 188.787 61.5031 153.642 26.3551ZM44.1716 96.9001C72.0706 137.859 44.9726 141.996 32.7476 129.148C26.6766 122.766 16.7316 112.82 13.9886 92.4461C13.1856 71.7071 20.6886 50.7031 36.5206 34.8701C38.0856 33.3071 39.7086 31.8441 41.3666 30.4431C27.3486 52.5851 30.0456 76.1591 44.1716 96.9001ZM75.0056 164.916C82.9816 160.234 88.0156 153.432 89.2596 151.159C93.0606 144.209 103.256 114.498 77.9316 84.1881C65.2626 69.0211 61.0596 50.1471 69.1246 35.1361C75.1396 23.9391 82.2506 16.8131 89.2256 12.3071C109.594 11.8161 130.124 19.3221 145.669 34.8681C175.808 65.0091 175.809 113.876 145.667 144.018C126.482 163.204 99.7096 170.158 75.0056 164.916Z"
            fill="black" />
        <path
            d="M153.642 26.3551C143.457 16.1691 131.434 8.94313 118.643 4.66013C103.398 -0.443868 87.0576 -1.35587 71.4196 1.92713C54.9076 5.39513 39.1806 13.5341 26.3596 26.3551C-6.60438 59.3201 -8.65238 111.496 20.2166 146.848C20.6996 147.442 21.1926 148.025 21.6926 148.607C22.7196 149.81 23.7776 151.003 24.9076 152.174C25.2656 152.541 25.6206 152.893 25.9776 153.25C26.1056 153.379 26.2296 153.512 26.3596 153.639C26.4296 153.71 26.5006 153.779 26.5716 153.848C26.5776 153.854 26.5836 153.86 26.5896 153.867C61.7546 188.786 118.571 188.714 153.639 153.639C188.787 118.491 188.787 61.5031 153.642 26.3551ZM44.1716 96.9001C72.0706 137.859 44.9726 141.996 32.7476 129.148C26.6766 122.766 16.7316 112.82 13.9886 92.4461C13.1856 71.7071 20.6886 50.7031 36.5206 34.8701C38.0856 33.3071 39.7086 31.8441 41.3666 30.4431C27.3486 52.5851 30.0456 76.1591 44.1716 96.9001ZM75.0056 164.916C82.9816 160.234 88.0156 153.432 89.2596 151.159C93.0606 144.209 103.256 114.498 77.9316 84.1881C65.2626 69.0211 61.0596 50.1471 69.1246 35.1361C75.1396 23.9391 82.2506 16.8131 89.2256 12.3071C109.594 11.8161 130.124 19.3221 145.669 34.8681C175.808 65.0091 175.809 113.876 145.667 144.018C126.482 163.204 99.7096 170.158 75.0056 164.916Z"
            fill="url(#paint0_linear_861_9046)" />
    </g>
    <defs>
        <linearGradient id="paint0_linear_861_9046" x1="84.9331" y1="-0.625549" x2="94.8767" y2="177.227"
            gradientUnits="userSpaceOnUse">
            <stop stop-color="#0057FF" stop-opacity="0.15" />
            <stop offset="0.07" stop-color="#0056FD" stop-opacity="0.3" />
            <stop offset="0.51" stop-color="#00A0D5" stop-opacity="0.9" />
            <stop offset="0.93" stop-color="#0056FD" stop-opacity="0.3" />
            <stop offset="1" stop-color="#0056FD" stop-opacity="0.15" />
        </linearGradient>
        <clipPath id="clip0_861_9046">
            <rect width="180" height="180" fill="white" />
        </clipPath>
    </defs>
</svg>